<svg xmlns="http://www.w3.org/2000/svg" version="1.1" xmlns:xlink="http://www.w3.org/1999/xlink" xmlns:svgjs="http://svgjs.dev/svgjs" width="1500" height="1500" viewBox="0 0 1500 1500"><rect width="1500" height="1500" fill="#000000"></rect><g transform="matrix(0.6666666666666666,0,0,0.6666666666666666,249.39393939393932,527.8937959514014)"><svg viewBox="0 0 396 176" data-background-color="#ececea" preserveAspectRatio="xMidYMid meet" height="666" width="1500" xmlns="http://www.w3.org/2000/svg" xmlns:xlink="http://www.w3.org/1999/xlink"><g id="tight-bounds" transform="matrix(1,0,0,1,0.24000000000003752,0.04209890214714562)"><svg viewBox="0 0 395.5199999999999 175.9158021957057" height="175.9158021957057" width="395.5199999999999"><g><svg viewBox="0 0 395.5199999999999 175.9158021957057" height="175.9158021957057" width="395.5199999999999"><g transform="matrix(1,0,0,1,0,105.90800121112997)"><svg viewBox="0 0 395.5199999999999 70.00780098457574" height="70.00780098457574" width="395.5199999999999"><g id="textblocktransform"><svg viewBox="0 0 395.5199999999999 70.00780098457574" height="70.00780098457574" width="395.5199999999999" id="textblock"><g><svg viewBox="0 0 395.5199999999999 38.789289256198344" height="38.789289256198344" width="395.5199999999999"><g transform="matrix(1,0,0,1,0,0)"><svg width="395.5199999999999" viewBox="0.75 -35 362.96 35.6" height="38.789289256198344" data-palette-color="#009b7d"><path d="M11.3-35Q14.05-35 16.18-34.02 18.3-33.05 20.1-31.05L20.1-31.05 17.7-28.45Q16.15-29.95 14.65-30.63 13.15-31.3 11.35-31.3L11.35-31.3Q9.2-31.3 7.88-29.93 6.55-28.55 6.55-26.3L6.55-26.3Q6.55-24.1 7.83-22.7 9.1-21.3 12.65-19.95L12.65-19.95Q16.75-18.4 18.85-16.1 20.95-13.8 20.95-9.55L20.95-9.55Q20.95-6.8 19.68-4.48 18.4-2.15 16.05-0.78 13.7 0.6 10.6 0.6L10.6 0.6Q7.5 0.6 5.1-0.55 2.7-1.7 0.75-3.85L0.75-3.85 3.2-6.45Q4.95-4.85 6.68-4 8.4-3.15 10.5-3.15L10.5-3.15Q13.1-3.15 14.65-4.85 16.2-6.55 16.2-9.45L16.2-9.45Q16.2-11.95 14.95-13.45 13.7-14.95 10.3-16.2L10.3-16.2Q5.95-17.85 3.93-20.2 1.9-22.55 1.9-26.1L1.9-26.1Q1.9-28.55 3.1-30.6 4.3-32.65 6.45-33.83 8.6-35 11.3-35L11.3-35ZM46.5 0L41.95 0 41.95-16.2 30.85-16.2 30.85 0 26.3 0 26.3-34.45 30.85-34.45 30.85-19.95 41.95-19.95 41.95-34.45 46.5-34.45 46.5 0ZM74.25 0L69.59 0 67.55-8.75 57.25-8.75 55.2 0 50.7 0 59.65-34.45 65.3-34.45 74.25 0ZM62.4-30.65L58.09-12.4 66.7-12.4 62.4-30.65ZM78.44-34.45L82.99-34.45 82.99 0 78.44 0 78.44-34.45ZM93.74-34.45L98.59-34.45 88.09-18.7 99.34 0 94.19 0 83.19-18.4 93.74-34.45ZM103.14-34.45L118.94-34.45 118.44-30.8 107.69-30.8 107.69-19.35 117.04-19.35 117.04-15.7 107.69-15.7 107.69-3.65 119.14-3.65 119.14 0 103.14 0 103.14-34.45ZM132.39-35Q135.14-35 137.26-34.02 139.39-33.05 141.19-31.05L141.19-31.05 138.79-28.45Q137.24-29.95 135.74-30.63 134.24-31.3 132.44-31.3L132.44-31.3Q130.29-31.3 128.96-29.93 127.64-28.55 127.64-26.3L127.64-26.3Q127.64-24.1 128.91-22.7 130.19-21.3 133.74-19.95L133.74-19.95Q137.84-18.4 139.94-16.1 142.04-13.8 142.04-9.55L142.04-9.55Q142.04-6.8 140.76-4.48 139.49-2.15 137.14-0.78 134.79 0.6 131.69 0.6L131.69 0.6Q128.59 0.6 126.19-0.55 123.79-1.7 121.84-3.85L121.84-3.85 124.29-6.45Q126.04-4.85 127.76-4 129.49-3.15 131.59-3.15L131.59-3.15Q134.19-3.15 135.74-4.85 137.29-6.55 137.29-9.45L137.29-9.45Q137.29-11.95 136.04-13.45 134.79-14.95 131.39-16.2L131.39-16.2Q127.04-17.85 125.01-20.2 122.99-22.55 122.99-26.1L122.99-26.1Q122.99-28.55 124.19-30.6 125.39-32.65 127.54-33.83 129.69-35 132.39-35L132.39-35ZM165.48-35Q168.23-35 170.36-34.02 172.48-33.05 174.28-31.05L174.28-31.05 171.88-28.45Q170.33-29.95 168.83-30.63 167.33-31.3 165.53-31.3L165.53-31.3Q163.38-31.3 162.06-29.93 160.73-28.55 160.73-26.3L160.73-26.3Q160.73-24.1 162.01-22.7 163.28-21.3 166.83-19.95L166.83-19.95Q170.93-18.4 173.03-16.1 175.13-13.8 175.13-9.55L175.13-9.55Q175.13-6.8 173.86-4.48 172.58-2.15 170.23-0.78 167.88 0.6 164.78 0.6L164.78 0.6Q161.68 0.6 159.28-0.55 156.88-1.7 154.93-3.85L154.93-3.85 157.38-6.45Q159.13-4.85 160.86-4 162.58-3.15 164.68-3.15L164.68-3.15Q167.28-3.15 168.83-4.85 170.38-6.55 170.38-9.45L170.38-9.45Q170.38-11.95 169.13-13.45 167.88-14.95 164.48-16.2L164.48-16.2Q160.13-17.85 158.11-20.2 156.08-22.55 156.08-26.1L156.08-26.1Q156.08-28.55 157.28-30.6 158.48-32.65 160.63-33.83 162.78-35 165.48-35L165.48-35ZM191.08-35Q196.78-35 199.98-30.58 203.18-26.15 203.18-17.2L203.18-17.2Q203.18-8.35 199.98-3.88 196.78 0.6 191.08 0.6L191.08 0.6Q185.38 0.6 182.16-3.8 178.93-8.2 178.93-17.15L178.93-17.15Q178.93-26 182.18-30.5 185.43-35 191.08-35L191.08-35ZM191.08-31.3Q187.48-31.3 185.61-28 183.73-24.7 183.73-17.15L183.73-17.15Q183.73-9.65 185.63-6.4 187.53-3.15 191.08-3.15L191.08-3.15Q194.68-3.15 196.53-6.38 198.38-9.6 198.38-17.2L198.38-17.2Q198.38-24.75 196.53-28.03 194.68-31.3 191.08-31.3L191.08-31.3ZM209.23-34.45L213.78-34.45 213.78-4 225.23-4 224.73 0 209.23 0 209.23-34.45ZM249.33-34.45L249.33-9.25Q249.33-6.5 248.15-4.25 246.98-2 244.68-0.7 242.38 0.6 239.18 0.6L239.18 0.6Q234.33 0.6 231.68-2.18 229.03-4.95 229.03-9.25L229.03-9.25 229.03-34.45 233.58-34.45 233.58-9.6Q233.58-3.25 239.18-3.25L239.18-3.25Q244.78-3.25 244.78-9.6L244.78-9.6 244.78-34.45 249.33-34.45ZM253.17-34.45L273.72-34.45 273.22-30.65 265.57-30.65 265.57 0 261.02 0 261.02-30.65 253.17-30.65 253.17-34.45ZM277.82-34.45L282.37-34.45 282.37 0 277.82 0 277.82-34.45ZM300.57-35Q306.27-35 309.47-30.58 312.67-26.15 312.67-17.2L312.67-17.2Q312.67-8.35 309.47-3.88 306.27 0.6 300.57 0.6L300.57 0.6Q294.87 0.6 291.64-3.8 288.42-8.2 288.42-17.15L288.42-17.15Q288.42-26 291.67-30.5 294.92-35 300.57-35L300.57-35ZM300.57-31.3Q296.97-31.3 295.09-28 293.22-24.7 293.22-17.15L293.22-17.15Q293.22-9.65 295.12-6.4 297.02-3.15 300.57-3.15L300.57-3.15Q304.17-3.15 306.02-6.38 307.87-9.6 307.87-17.2L307.87-17.2Q307.87-24.75 306.02-28.03 304.17-31.3 300.57-31.3L300.57-31.3ZM338.97-34.45L338.97 0 332.92 0 322.31-29.35Q322.62-25.85 322.79-23.1 322.97-20.35 322.97-16.2L322.97-16.2 322.97 0 318.72 0 318.72-34.45 324.77-34.45 335.37-5.05Q335.17-5.8 334.94-9.15 334.72-12.5 334.72-15.4L334.72-15.4 334.72-34.45 338.97-34.45ZM354.06-35Q356.81-35 358.94-34.02 361.06-33.05 362.86-31.05L362.86-31.05 360.46-28.45Q358.91-29.95 357.41-30.63 355.91-31.3 354.11-31.3L354.11-31.3Q351.96-31.3 350.64-29.93 349.31-28.55 349.31-26.3L349.31-26.3Q349.31-24.1 350.59-22.7 351.86-21.3 355.41-19.95L355.41-19.95Q359.51-18.4 361.61-16.1 363.71-13.8 363.71-9.55L363.71-9.55Q363.71-6.8 362.44-4.48 361.16-2.15 358.81-0.78 356.46 0.6 353.36 0.6L353.36 0.6Q350.26 0.6 347.86-0.55 345.46-1.7 343.51-3.85L343.51-3.85 345.96-6.45Q347.71-4.85 349.44-4 351.16-3.15 353.26-3.15L353.26-3.15Q355.86-3.15 357.41-4.85 358.96-6.55 358.96-9.45L358.96-9.45Q358.96-11.95 357.71-13.45 356.46-14.95 353.06-16.2L353.06-16.2Q348.71-17.85 346.69-20.2 344.66-22.55 344.66-26.1L344.66-26.1Q344.66-28.55 345.86-30.6 347.06-32.65 349.21-33.83 351.36-35 354.06-35L354.06-35Z" opacity="1" transform="matrix(1,0,0,1,0,0)" fill="#ffffff" class="wordmark-text-0" data-fill-palette-color="primary" id="text-0"></path></svg></g></svg></g><g transform="matrix(1,0,0,1,0,47.946509506644624)"><svg viewBox="0 0 395.5199999999999 22.061291477931103" height="22.061291477931103" width="395.5199999999999"><g transform="matrix(1,0,0,1,0,0)"><svg width="395.5199999999999" viewBox="5.35 -40.4 949.2099999999999 52.95" height="22.061291477931103" data-palette-color="#009b7d"><path d="M10.2-4.2L28.55-4.2 28.55 0 5.35 0 5.35-37.9 28.3-37.9 28.3-33.7 10.2-33.7 10.2-21.15 25.8-21.15 25.8-16.95 10.2-16.95 10.2-4.2ZM67.15-28.25Q72.2-28.25 74.62-25.55 77.05-22.85 77.05-16.65L77.05-16.65 77.05 0 72.35 0 72.35-16.65Q72.35-20.6 71.07-22.23 69.8-23.85 66.5-23.85L66.5-23.85Q62.6-23.85 58.7-20.1L58.7-20.1Q58.9-18.7 58.9-16.65L58.9-16.65 58.9 0 54.2 0 54.2-16.65Q54.2-20.6 52.92-22.23 51.65-23.85 48.35-23.85L48.35-23.85Q44.55-23.85 40.75-20.45L40.75-20.45 40.75 0 36.05 0 36.05-27.65 40.75-27.65 40.75-24.7Q44.8-28.25 49-28.25L49-28.25Q52.35-28.25 54.5-27.13 56.65-26 57.75-23.55L57.75-23.55Q62.3-28.25 67.15-28.25L67.15-28.25ZM97.65-28.45Q103.25-28.45 106.57-24.7 109.9-20.95 109.9-13.8L109.9-13.8Q109.9-6.65 106.57-2.9 103.25 0.85 97.65 0.85L97.65 0.85Q93.6 0.85 89.65-2.5L89.65-2.5 89.65 11.7 84.95 11.7 84.95-27.65 89.65-27.65 89.65-25.05Q93.65-28.45 97.65-28.45L97.65-28.45ZM97-3.5Q100.95-3.5 103-6.13 105.05-8.75 105.05-13.8L105.05-13.8Q105.05-18.85 103-21.45 100.95-24.05 97-24.05L97-24.05Q93.25-24.05 89.65-20.95L89.65-20.95 89.65-6.6Q93.35-3.5 97-3.5L97-3.5ZM129.19 0.85Q124.79 0.85 121.72-1.07 118.64-3 117.09-6.33 115.54-9.65 115.54-13.8L115.54-13.8Q115.54-17.95 117.09-21.28 118.64-24.6 121.72-26.53 124.79-28.45 129.19-28.45L129.19-28.45Q133.59-28.45 136.67-26.53 139.74-24.6 141.27-21.28 142.79-17.95 142.79-13.8L142.79-13.8Q142.79-9.65 141.27-6.33 139.74-3 136.67-1.07 133.59 0.85 129.19 0.85L129.19 0.85ZM129.19-3.4Q133.34-3.4 135.62-6.3 137.89-9.2 137.89-13.8L137.89-13.8Q137.89-18.4 135.62-21.28 133.34-24.15 129.19-24.15L129.19-24.15Q125.04-24.15 122.74-21.28 120.44-18.4 120.44-13.8L120.44-13.8Q120.44-9.2 122.74-6.3 125.04-3.4 129.19-3.4L129.19-3.4ZM182.64-27.65L187.54-27.65 179.04 0.45 173.99 0.45 167.14-20.75 160.34 0.45 155.29 0.45 146.74-27.65 151.64-27.65 157.84-5.7 164.44-27.65 169.84-27.65 176.49-5.7 182.64-27.65ZM196.39-13.45Q196.49-8.85 198.69-6.1 200.89-3.35 205.69-3.35L205.69-3.35Q209.34-3.35 213.69-5.4L213.69-5.4 215.14-1.5Q210.59 0.85 205.29 0.85L205.29 0.85Q200.89 0.85 197.79-1 194.69-2.85 193.09-6.15 191.49-9.45 191.49-13.85L191.49-13.85Q191.49-18.5 193.16-21.78 194.84-25.05 197.69-26.75 200.54-28.45 204.09-28.45L204.09-28.45Q209.54-28.45 212.64-25.05 215.74-21.65 215.74-15.3L215.74-15.3 215.74-13.45 196.39-13.45ZM204.09-24.25Q197.89-24.25 196.69-17.4L196.69-17.4 210.79-17.4Q210.54-20.9 208.89-22.58 207.24-24.25 204.09-24.25L204.09-24.25ZM235.49-28.25L236.63-28.25 236.63-23.85 235.49-23.85Q231.19-23.85 227.13-20.4L227.13-20.4 227.13 0 222.44 0 222.44-27.65 227.13-27.65 227.13-24.55Q231.24-28.25 235.49-28.25L235.49-28.25ZM242.63-32.85L242.63-40.4 247.33-40.4 247.33-32.85 242.63-32.85ZM242.63 0L242.63-27.65 247.33-27.65 247.33 0 242.63 0ZM269.48-28.25Q274.58-28.25 277.06-25.55 279.53-22.85 279.53-16.65L279.53-16.65 279.53 0 274.83 0 274.83-16.65Q274.83-20.55 273.5-22.2 272.18-23.85 268.83-23.85L268.83-23.85Q264.93-23.85 261.03-20.45L261.03-20.45 261.03 0 256.33 0 256.33-27.65 261.03-27.65 261.03-24.7Q265.13-28.25 269.48-28.25L269.48-28.25ZM306.78-27.65L311.48-27.65 311.48 0.55Q311.48 6.2 308.85 9.38 306.23 12.55 299.68 12.55L299.68 12.55Q296.48 12.55 294.15 12.15 291.83 11.75 289.38 10.75L289.38 10.75 289.38 6.1Q291.68 7.15 293.98 7.68 296.28 8.2 298.23 8.2L298.23 8.2Q301.83 8.2 303.68 7.28 305.53 6.35 306.15 4.63 306.78 2.9 306.78 0.05L306.78 0.05 306.78-3.5Q302.83-0.15 298.78-0.15L298.78-0.15Q293.18-0.15 289.85-3.8 286.53-7.45 286.53-14.3L286.53-14.3Q286.53-21.2 289.88-24.83 293.23-28.45 298.78-28.45L298.78-28.45Q302.78-28.45 306.78-25.05L306.78-25.05 306.78-27.65ZM299.43-4.5Q303.08-4.5 306.78-7.6L306.78-7.6 306.78-20.95Q303.18-24.05 299.43-24.05L299.43-24.05Q295.53-24.05 293.45-21.48 291.38-18.9 291.38-14.3L291.38-14.3Q291.38-9.55 293.43-7.03 295.48-4.5 299.43-4.5L299.43-4.5ZM355.52-37.9L360.37-37.9 360.37 0 355.52 0 355.52-16.85 336.42-16.85 336.42 0 331.57 0 331.57-37.9 336.42-37.9 336.42-21.25 355.52-21.25 355.52-37.9ZM382.17 0.85Q377.77 0.85 374.69-1.07 371.62-3 370.07-6.33 368.52-9.65 368.52-13.8L368.52-13.8Q368.52-17.95 370.07-21.28 371.62-24.6 374.69-26.53 377.77-28.45 382.17-28.45L382.17-28.45Q386.57-28.45 389.64-26.53 392.72-24.6 394.24-21.28 395.77-17.95 395.77-13.8L395.77-13.8Q395.77-9.65 394.24-6.33 392.72-3 389.64-1.07 386.57 0.85 382.17 0.85L382.17 0.85ZM382.17-3.4Q386.32-3.4 388.59-6.3 390.87-9.2 390.87-13.8L390.87-13.8Q390.87-18.4 388.59-21.28 386.32-24.15 382.17-24.15L382.17-24.15Q378.02-24.15 375.72-21.28 373.42-18.4 373.42-13.8L373.42-13.8Q373.42-9.2 375.72-6.3 378.02-3.4 382.17-3.4L382.17-3.4ZM434.17-28.25Q439.22-28.25 441.64-25.55 444.07-22.85 444.07-16.65L444.07-16.65 444.07 0 439.37 0 439.37-16.65Q439.37-20.6 438.09-22.23 436.82-23.85 433.52-23.85L433.52-23.85Q429.62-23.85 425.72-20.1L425.72-20.1Q425.92-18.7 425.92-16.65L425.92-16.65 425.92 0 421.22 0 421.22-16.65Q421.22-20.6 419.94-22.23 418.67-23.85 415.37-23.85L415.37-23.85Q411.57-23.85 407.77-20.45L407.77-20.45 407.77 0 403.07 0 403.07-27.65 407.77-27.65 407.77-24.7Q411.82-28.25 416.02-28.25L416.02-28.25Q419.37-28.25 421.52-27.13 423.67-26 424.77-23.55L424.77-23.55Q429.32-28.25 434.17-28.25L434.17-28.25ZM455.16-13.45Q455.26-8.85 457.46-6.1 459.66-3.35 464.46-3.35L464.46-3.35Q468.11-3.35 472.46-5.4L472.46-5.4 473.91-1.5Q469.36 0.85 464.06 0.85L464.06 0.85Q459.66 0.85 456.56-1 453.46-2.85 451.86-6.15 450.26-9.45 450.26-13.85L450.26-13.85Q450.26-18.5 451.94-21.78 453.61-25.05 456.46-26.75 459.31-28.45 462.86-28.45L462.86-28.45Q468.31-28.45 471.41-25.05 474.51-21.65 474.51-15.3L474.51-15.3 474.51-13.45 455.16-13.45ZM462.86-24.25Q456.66-24.25 455.46-17.4L455.46-17.4 469.56-17.4Q469.31-20.9 467.66-22.58 466.01-24.25 462.86-24.25L462.86-24.25ZM489.61 0.85Q486.56 0.85 484.21 0.35 481.86-0.15 479.31-1.35L479.31-1.35 479.31-6Q484.06-3.35 489.61-3.35L489.61-3.35Q492.41-3.35 493.64-4.48 494.86-5.6 494.86-7.45L494.86-7.45Q494.86-9.25 493.89-10.1 492.91-10.95 490.71-11.55L490.71-11.55 487.46-12.35Q483.96-13.2 481.96-15.05 479.96-16.9 479.96-20.5L479.96-20.5Q479.96-24.25 482.41-26.35 484.86-28.45 489.61-28.45L489.61-28.45Q492.06-28.45 494.16-27.98 496.26-27.5 498.36-26.65L498.36-26.65 498.36-22.25Q496.31-23.2 494.31-23.73 492.31-24.25 489.76-24.25L489.76-24.25Q487.11-24.25 485.94-23.23 484.76-22.2 484.76-20.65L484.76-20.65Q484.76-18.95 485.79-18.07 486.81-17.2 488.76-16.7L488.76-16.7 492.06-15.95Q494.56-15.35 496.19-14.45 497.81-13.55 498.74-11.93 499.66-10.3 499.66-7.6L499.66-7.6Q499.66-3.55 496.94-1.35 494.21 0.85 489.61 0.85L489.61 0.85ZM505.26 7.55L508.26-8.05 513.26-8.05 509.61 7.55 505.26 7.55ZM543.7 0.85Q536.45 0.85 530.75-1.85L530.75-1.85 530.75-6.45Q536.5-3.4 543.7-3.4L543.7-3.4Q547.85-3.4 549.78-5.15 551.7-6.9 551.7-9.75L551.7-9.75Q551.7-12.45 549.93-13.8 548.15-15.15 544.7-16.15L544.7-16.15 541.3-17.1Q538.4-17.95 536.35-19.05 534.3-20.15 532.93-22.23 531.55-24.3 531.55-27.65L531.55-27.65Q531.55-33 534.68-35.8 537.8-38.6 543.55-38.6L543.55-38.6Q546.9-38.6 549.45-37.98 552-37.35 554.75-36.1L554.75-36.1 554.75-31.6Q549.65-34.35 543.55-34.35L543.55-34.35Q539.85-34.35 538.15-32.63 536.45-30.9 536.45-27.9L536.45-27.9Q536.5-25.15 538.13-23.85 539.75-22.55 543.2-21.55L543.2-21.55 546.65-20.6Q549.7-19.75 551.83-18.63 553.95-17.5 555.28-15.38 556.6-13.25 556.6-9.85L556.6-9.85Q556.55-4.9 553.13-2.02 549.7 0.85 543.7 0.85L543.7 0.85ZM567.45-13.45Q567.55-8.85 569.75-6.1 571.95-3.35 576.75-3.35L576.75-3.35Q580.4-3.35 584.75-5.4L584.75-5.4 586.2-1.5Q581.65 0.85 576.35 0.85L576.35 0.85Q571.95 0.85 568.85-1 565.75-2.85 564.15-6.15 562.55-9.45 562.55-13.85L562.55-13.85Q562.55-18.5 564.23-21.78 565.9-25.05 568.75-26.75 571.6-28.45 575.15-28.45L575.15-28.45Q580.6-28.45 583.7-25.05 586.8-21.65 586.8-15.3L586.8-15.3 586.8-13.45 567.45-13.45ZM575.15-24.25Q568.95-24.25 567.75-17.4L567.75-17.4 581.85-17.4Q581.6-20.9 579.95-22.58 578.3-24.25 575.15-24.25L575.15-24.25ZM605.2 0.85Q598.75 0.8 595.27-3.15 591.8-7.1 591.8-13.85L591.8-13.85Q591.8-20.6 595.27-24.5 598.75-28.4 605.2-28.45L605.2-28.45Q607.45-28.45 609.07-28.13 610.7-27.8 612.55-27.05L612.55-27.05 612.55-22.5Q610.75-23.35 609.12-23.7 607.5-24.05 605.55-24.05L605.55-24.05Q600.9-24 598.8-21.28 596.7-18.55 596.7-13.9L596.7-13.9Q596.7-9.15 598.8-6.35 600.9-3.55 605.45-3.5L605.45-3.5Q609-3.5 613.2-5.65L613.2-5.65 614.7-1.55Q610.15 0.85 605.2 0.85L605.2 0.85ZM639.05-27.65L643.75-27.65 643.75 0 639.05 0 639.05-2.95Q634.95 0.6 630.6 0.6L630.6 0.6Q625.5 0.6 623.02-2.1 620.55-4.8 620.55-10.95L620.55-10.95 620.55-27.65 625.25-27.65 625.25-10.95Q625.25-7.05 626.57-5.4 627.9-3.75 631.25-3.75L631.25-3.75Q635.15-3.75 639.05-7.15L639.05-7.15 639.05-27.65ZM665.79-28.25L666.94-28.25 666.94-23.85 665.79-23.85Q661.49-23.85 657.44-20.4L657.44-20.4 657.44 0 652.74 0 652.74-27.65 657.44-27.65 657.44-24.55Q661.54-28.25 665.79-28.25L665.79-28.25ZM672.94-32.85L672.94-40.4 677.64-40.4 677.64-32.85 672.94-32.85ZM672.94 0L672.94-27.65 677.64-27.65 677.64 0 672.94 0ZM699.79-28.25Q704.89-28.25 707.36-25.55 709.84-22.85 709.84-16.65L709.84-16.65 709.84 0 705.14 0 705.14-16.65Q705.14-20.55 703.81-22.2 702.49-23.85 699.14-23.85L699.14-23.85Q695.24-23.85 691.34-20.45L691.34-20.45 691.34 0 686.64 0 686.64-27.65 691.34-27.65 691.34-24.7Q695.44-28.25 699.79-28.25L699.79-28.25ZM737.09-27.65L741.79-27.65 741.79 0.55Q741.79 6.2 739.16 9.38 736.54 12.55 729.99 12.55L729.99 12.55Q726.79 12.55 724.46 12.15 722.14 11.75 719.69 10.75L719.69 10.75 719.69 6.1Q721.99 7.15 724.29 7.68 726.59 8.2 728.54 8.2L728.54 8.2Q732.14 8.2 733.99 7.28 735.84 6.35 736.46 4.63 737.09 2.9 737.09 0.05L737.09 0.05 737.09-3.5Q733.14-0.15 729.09-0.15L729.09-0.15Q723.49-0.15 720.16-3.8 716.84-7.45 716.84-14.3L716.84-14.3Q716.84-21.2 720.19-24.83 723.54-28.45 729.09-28.45L729.09-28.45Q733.09-28.45 737.09-25.05L737.09-25.05 737.09-27.65ZM729.74-4.5Q733.39-4.5 737.09-7.6L737.09-7.6 737.09-20.95Q733.49-24.05 729.74-24.05L729.74-24.05Q725.84-24.05 723.76-21.48 721.69-18.9 721.69-14.3L721.69-14.3Q721.69-9.55 723.74-7.03 725.79-4.5 729.74-4.5L729.74-4.5ZM784.83-33.55L766.73-33.55 766.73-20.55 782.33-20.55 782.33-16.2 766.73-16.2 766.73 0 761.88 0 761.88-37.9 784.83-37.9 784.83-33.55ZM809.93-27.65L814.63-27.65 814.63 0 809.93 0 809.93-2.95Q805.83 0.6 801.48 0.6L801.48 0.6Q796.38 0.6 793.9-2.1 791.43-4.8 791.43-10.95L791.43-10.95 791.43-27.65 796.13-27.65 796.13-10.95Q796.13-7.05 797.45-5.4 798.78-3.75 802.13-3.75L802.13-3.75Q806.03-3.75 809.93-7.15L809.93-7.15 809.93-27.65ZM835.68-22.95L829.28-22.95 829.28-7.15Q829.28-5.15 829.9-4.42 830.53-3.7 832.23-3.7L832.23-3.7Q833.73-3.7 835.43-4.1L835.43-4.1 835.43 0.15Q833.18 0.65 831.43 0.65L831.43 0.65Q827.63 0.65 826.1-0.9 824.58-2.45 824.58-6.1L824.58-6.1 824.58-22.95 820.98-22.95 820.98-27.3 824.58-27.3 824.58-36.8 829.28-36.8 829.28-27.3 835.68-27.3 835.68-22.95ZM860.52-27.65L865.22-27.65 865.22 0 860.52 0 860.52-2.95Q856.42 0.6 852.07 0.6L852.07 0.6Q846.97 0.6 844.5-2.1 842.02-4.8 842.02-10.95L842.02-10.95 842.02-27.65 846.72-27.65 846.72-10.95Q846.72-7.05 848.05-5.4 849.37-3.75 852.72-3.75L852.72-3.75Q856.62-3.75 860.52-7.15L860.52-7.15 860.52-27.65ZM887.27-28.25L888.42-28.25 888.42-23.85 887.27-23.85Q882.97-23.85 878.92-20.4L878.92-20.4 878.92 0 874.22 0 874.22-27.65 878.92-27.65 878.92-24.55Q883.02-28.25 887.27-28.25L887.27-28.25ZM897.62-13.45Q897.72-8.85 899.92-6.1 902.12-3.35 906.92-3.35L906.92-3.35Q910.57-3.35 914.92-5.4L914.92-5.4 916.37-1.5Q911.82 0.85 906.52 0.85L906.52 0.85Q902.12 0.85 899.02-1 895.92-2.85 894.32-6.15 892.72-9.45 892.72-13.85L892.72-13.85Q892.72-18.5 894.39-21.78 896.07-25.05 898.92-26.75 901.77-28.45 905.32-28.45L905.32-28.45Q910.77-28.45 913.87-25.05 916.97-21.65 916.97-15.3L916.97-15.3 916.97-13.45 897.62-13.45ZM905.32-24.25Q899.12-24.25 897.92-17.4L897.92-17.4 912.02-17.4Q911.77-20.9 910.12-22.58 908.47-24.25 905.32-24.25L905.32-24.25ZM932.07 0.85Q929.02 0.85 926.67 0.35 924.32-0.15 921.77-1.35L921.77-1.35 921.77-6Q926.52-3.35 932.07-3.35L932.07-3.35Q934.87-3.35 936.09-4.48 937.32-5.6 937.32-7.45L937.32-7.45Q937.32-9.25 936.34-10.1 935.37-10.95 933.17-11.55L933.17-11.55 929.92-12.35Q926.42-13.2 924.42-15.05 922.42-16.9 922.42-20.5L922.42-20.5Q922.42-24.25 924.87-26.35 927.32-28.45 932.07-28.45L932.07-28.45Q934.52-28.45 936.62-27.98 938.72-27.5 940.82-26.65L940.82-26.65 940.82-22.25Q938.77-23.2 936.77-23.73 934.77-24.25 932.22-24.25L932.22-24.25Q929.57-24.25 928.39-23.23 927.22-22.2 927.22-20.65L927.22-20.65Q927.22-18.95 928.24-18.07 929.27-17.2 931.22-16.7L931.22-16.7 934.52-15.95Q937.02-15.35 938.64-14.45 940.27-13.55 941.19-11.93 942.12-10.3 942.12-7.6L942.12-7.6Q942.12-3.55 939.39-1.35 936.67 0.85 932.07 0.85L932.07 0.85ZM949.36 0L949.36-8.05 954.56-8.05 954.56 0 949.36 0Z" opacity="1" transform="matrix(1,0,0,1,0,0)" fill="#ffffff" class="slogan-text-1" data-fill-palette-color="secondary" id="text-1"></path></svg></g></svg></g></svg></g></svg></g><g transform="matrix(1,0,0,1,129.59521856294148,0)"><svg viewBox="0 0 136.32956287411696 96.75078096068368" height="96.75078096068368" width="136.32956287411696"><g><svg xmlns="http://www.w3.org/2000/svg" xmlns:xlink="http://www.w3.org/1999/xlink" version="1.1" x="8.000000000000007" y="0" viewBox="24.271 29.317 49.354 39.683" enable-background="new 0 0 100 100" xml:space="preserve" height="96.75078096068368" width="120.32956287411695" class="icon-icon-0" data-fill-palette-color="accent" id="icon-0"><polygon points="66,69 65,69 65,44 70.375,44 49.451,30.482 41,35.524 41,34 37,34 37,38.624 27.921,44 32,44 32,69 31,69 31,45   24.271,45 36,38.053 36,33 42,33 42,33.764 49.451,29.317 73.625,45 66,45 " fill="#ffffff" data-fill-palette-color="accent"></polygon></svg></g></svg></g><g><rect width="129.59521856294148" height="3.4980581356704796" y="92.2527228250132" x="265.9247814370584" fill="#ffffff" data-fill-palette-color="accent"></rect><rect width="129.59521856294148" height="3.4980581356704796" y="92.2527228250132" x="0" fill="#ffffff" data-fill-palette-color="accent"></rect><rect width="129.59521856294148" height="3.4980581356704796" y="85.25660655367224" x="265.9247814370584" fill="#ffffff" data-fill-palette-color="accent"></rect><rect width="129.59521856294148" height="3.4980581356704796" y="85.25660655367224" x="0" fill="#ffffff" data-fill-palette-color="accent"></rect></g></svg></g><defs></defs></svg><rect width="395.5199999999999" height="175.9158021957057" fill="none" stroke="none" visibility="hidden"></rect></g></svg></g></svg>